<svg id="visual" viewBox="0 0 1200 100" width="1200" height="100" xmlns="http://www.w3.org/2000/svg" xmlns:xlink="http://www.w3.org/1999/xlink" version="1.1"><path d="M0 29L7.3 30.2C14.7 31.3 29.3 33.7 44.2 33.2C59 32.7 74 29.3 88.8 28.2C103.7 27 118.3 28 133.2 28.8C148 29.7 163 30.3 177.8 35.5C192.7 40.7 207.3 50.3 222.2 55.3C237 60.3 252 60.7 266.8 56C281.7 51.3 296.3 41.7 311.2 37.5C326 33.3 341 34.7 355.8 35.5C370.7 36.3 385.3 36.7 400 37.5C414.7 38.3 429.3 39.7 444.2 42.5C459 45.3 474 49.7 488.8 54.8C503.7 60 518.3 66 533.2 62.2C548 58.3 563 44.7 577.8 44.2C592.7 43.7 607.3 56.3 622.2 55.2C637 54 652 39 666.8 39.5C681.7 40 696.3 56 711.2 62.8C726 69.7 741 67.3 755.8 65.2C770.7 63 785.3 61 800 55.5C814.7 50 829.3 41 844.2 40C859 39 874 46 888.8 45.5C903.7 45 918.3 37 933.2 34.8C948 32.7 963 36.3 977.8 36C992.7 35.7 1007.3 31.3 1022.2 31.2C1037 31 1052 35 1066.8 41C1081.7 47 1096.3 55 1111.2 58.5C1126 62 1141 61 1155.8 58.7C1170.7 56.3 1185.3 52.7 1192.7 50.8L1200 49L1200 0L1192.7 0C1185.3 0 1170.7 0 1155.8 0C1141 0 1126 0 1111.2 0C1096.3 0 1081.7 0 1066.8 0C1052 0 1037 0 1022.2 0C1007.3 0 992.7 0 977.8 0C963 0 948 0 933.2 0C918.3 0 903.7 0 888.8 0C874 0 859 0 844.2 0C829.3 0 814.7 0 800 0C785.3 0 770.7 0 755.8 0C741 0 726 0 711.2 0C696.3 0 681.7 0 666.8 0C652 0 637 0 622.2 0C607.3 0 592.7 0 577.8 0C563 0 548 0 533.2 0C518.3 0 503.7 0 488.8 0C474 0 459 0 444.2 0C429.3 0 414.7 0 400 0C385.3 0 370.7 0 355.8 0C341 0 326 0 311.2 0C296.3 0 281.7 0 266.8 0C252 0 237 0 222.2 0C207.3 0 192.7 0 177.8 0C163 0 148 0 133.2 0C118.3 0 103.7 0 88.8 0C74 0 59 0 44.2 0C29.3 0 14.7 0 7.3 0L0 0Z" fill="#7c4ec4" stroke-linecap="round" stroke-linejoin="miter"></path></svg>