<svg id="visual" viewBox="0 0 960 540" width="960" height="540" xmlns="http://www.w3.org/2000/svg" xmlns:xlink="http://www.w3.org/1999/xlink" version="1.1"><path d="M0 481L6 479.3C12 477.7 24 474.3 35.8 474.2C47.7 474 59.3 477 71.2 481.5C83 486 95 492 106.8 492.2C118.7 492.3 130.3 486.7 142.2 486.2C154 485.7 166 490.3 177.8 488.3C189.7 486.3 201.3 477.7 213.2 477.5C225 477.3 237 485.7 248.8 484.7C260.7 483.7 272.3 473.3 284.2 472.2C296 471 308 479 320 485.7C332 492.3 344 497.7 355.8 499.7C367.7 501.7 379.3 500.3 391.2 500C403 499.7 415 500.3 426.8 496.8C438.7 493.3 450.3 485.7 462.2 479.3C474 473 486 468 497.8 472.3C509.7 476.7 521.3 490.3 533.2 490.8C545 491.3 557 478.7 568.8 476.5C580.7 474.3 592.3 482.7 604.2 489C616 495.3 628 499.7 640 497.8C652 496 664 488 675.8 485.2C687.7 482.3 699.3 484.7 711.2 485.8C723 487 735 487 746.8 485.8C758.7 484.7 770.3 482.3 782.2 478.7C794 475 806 470 817.8 468.8C829.7 467.7 841.3 470.3 853.2 469.3C865 468.3 877 463.7 888.8 464.8C900.7 466 912.3 473 924.2 473.7C936 474.3 948 468.7 954 465.8L960 463L960 541L954 541C948 541 936 541 924.2 541C912.3 541 900.7 541 888.8 541C877 541 865 541 853.2 541C841.3 541 829.7 541 817.8 541C806 541 794 541 782.2 541C770.3 541 758.7 541 746.8 541C735 541 723 541 711.2 541C699.3 541 687.7 541 675.8 541C664 541 652 541 640 541C628 541 616 541 604.2 541C592.3 541 580.7 541 568.8 541C557 541 545 541 533.2 541C521.3 541 509.7 541 497.8 541C486 541 474 541 462.2 541C450.3 541 438.7 541 426.8 541C415 541 403 541 391.2 541C379.3 541 367.7 541 355.8 541C344 541 332 541 320 541C308 541 296 541 284.2 541C272.3 541 260.7 541 248.8 541C237 541 225 541 213.2 541C201.3 541 189.7 541 177.8 541C166 541 154 541 142.2 541C130.3 541 118.7 541 106.8 541C95 541 83 541 71.2 541C59.3 541 47.7 541 35.8 541C24 541 12 541 6 541L0 541Z" fill="#3862a0" stroke-linecap="round" stroke-linejoin="miter"></path></svg>