<svg id="visual" viewBox="0 0 900 450" width="900" height="450" xmlns="http://www.w3.org/2000/svg" xmlns:xlink="http://www.w3.org/1999/xlink" version="1.1"><path d="M0 47L15 51.5C30 56 60 65 90 64.7C120 64.3 150 54.7 180 52.8C210 51 240 57 270 60.8C300 64.7 330 66.3 360 71.7C390 77 420 86 450 85.5C480 85 510 75 540 79.2C570 83.3 600 101.7 630 111.2C660 120.7 690 121.3 720 119.8C750 118.3 780 114.7 810 103.2C840 91.7 870 72.3 885 62.7L900 53L900 0L885 0C870 0 840 0 810 0C780 0 750 0 720 0C690 0 660 0 630 0C600 0 570 0 540 0C510 0 480 0 450 0C420 0 390 0 360 0C330 0 300 0 270 0C240 0 210 0 180 0C150 0 120 0 90 0C60 0 30 0 15 0L0 0Z" fill="#7b4ec3" stroke-linecap="round" stroke-linejoin="miter"></path></svg>