<svg id="visual" viewBox="0 0 1200 100" width="1200" height="100" xmlns="http://www.w3.org/2000/svg" xmlns:xlink="http://www.w3.org/1999/xlink" version="1.1"><path d="M0 63L7.3 59.3C14.7 55.7 29.3 48.3 44.2 46.5C59 44.7 74 48.3 88.8 48.8C103.7 49.3 118.3 46.7 133.2 47.2C148 47.7 163 51.3 177.8 51C192.7 50.7 207.3 46.3 222.2 46.3C237 46.3 252 50.7 266.8 55.7C281.7 60.7 296.3 66.3 311.2 70.3C326 74.3 341 76.7 355.8 76.3C370.7 76 385.3 73 400 68.8C414.7 64.7 429.3 59.3 444.2 56.5C459 53.7 474 53.3 488.8 54.7C503.7 56 518.3 59 533.2 62.8C548 66.7 563 71.3 577.8 68.8C592.7 66.3 607.3 56.7 622.2 50.8C637 45 652 43 666.8 44.2C681.7 45.3 696.3 49.7 711.2 52.8C726 56 741 58 755.8 59.3C770.7 60.7 785.3 61.3 800 62.5C814.7 63.7 829.3 65.3 844.2 63C859 60.7 874 54.3 888.8 53.5C903.7 52.7 918.3 57.3 933.2 57.2C948 57 963 52 977.8 50.7C992.7 49.3 1007.3 51.7 1022.2 54.8C1037 58 1052 62 1066.8 61.2C1081.7 60.3 1096.3 54.7 1111.2 55.8C1126 57 1141 65 1155.8 66.5C1170.7 68 1185.3 63 1192.7 60.5L1200 58L1200 101L1192.7 101C1185.3 101 1170.7 101 1155.8 101C1141 101 1126 101 1111.2 101C1096.3 101 1081.7 101 1066.8 101C1052 101 1037 101 1022.2 101C1007.3 101 992.7 101 977.8 101C963 101 948 101 933.2 101C918.3 101 903.7 101 888.8 101C874 101 859 101 844.2 101C829.3 101 814.7 101 800 101C785.3 101 770.7 101 755.8 101C741 101 726 101 711.2 101C696.3 101 681.7 101 666.8 101C652 101 637 101 622.2 101C607.3 101 592.7 101 577.8 101C563 101 548 101 533.2 101C518.3 101 503.7 101 488.8 101C474 101 459 101 444.2 101C429.3 101 414.7 101 400 101C385.3 101 370.7 101 355.8 101C341 101 326 101 311.2 101C296.3 101 281.7 101 266.8 101C252 101 237 101 222.2 101C207.3 101 192.7 101 177.8 101C163 101 148 101 133.2 101C118.3 101 103.7 101 88.8 101C74 101 59 101 44.2 101C29.3 101 14.7 101 7.3 101L0 101Z" fill="#ffffff" stroke-linecap="round" stroke-linejoin="miter"></path></svg>